<svg width="104" height="43" viewBox="0 0 104 43" fill="none" xmlns="http://www.w3.org/2000/svg">
<g filter="url(#filter0_ii_1_512)">
<rect y="0.5" width="104" height="42" rx="16" fill="#E17245"/>
<path d="M22.7516 20.256V21.744H18.8796V20.256H22.7516ZM21.3276 21.744L21.6316 20.608C22.4529 20.608 23.1356 20.72 23.6796 20.944C24.2342 21.168 24.6502 21.4773 24.9276 21.872C25.2049 22.256 25.3436 22.7093 25.3436 23.232C25.3436 24.2453 24.9702 24.9973 24.2236 25.488C23.4769 25.968 22.4209 26.208 21.0556 26.208C20.7889 26.208 20.4956 26.1973 20.1756 26.176C19.8662 26.1653 19.5516 26.1333 19.2316 26.08C18.9222 26.0267 18.6342 25.9627 18.3676 25.888C17.8449 25.7067 17.5836 25.392 17.5836 24.944V17.088C17.5836 16.896 17.6369 16.7467 17.7436 16.64C17.8609 16.5227 18.0102 16.4373 18.1916 16.384C18.5542 16.2667 18.9756 16.1867 19.4556 16.144C19.9356 16.0907 20.4316 16.064 20.9436 16.064C22.2236 16.064 23.2156 16.288 23.9196 16.736C24.6236 17.184 24.9756 17.8667 24.9756 18.784C24.9756 19.2747 24.8369 19.7067 24.5596 20.08C24.2929 20.4427 23.8876 20.7253 23.3436 20.928C22.8102 21.1307 22.1382 21.232 21.3276 21.232L21.1996 20.256C21.7862 20.256 22.2236 20.1387 22.5116 19.904C22.7996 19.6693 22.9436 19.3387 22.9436 18.912C22.9436 18.496 22.7782 18.1813 22.4476 17.968C22.1169 17.744 21.6209 17.632 20.9596 17.632C20.6929 17.632 20.4369 17.6427 20.1916 17.664C19.9462 17.6853 19.7382 17.712 19.5676 17.744V24.48C19.7702 24.5333 20.0156 24.5707 20.3036 24.592C20.5916 24.6133 20.8742 24.624 21.1516 24.624C21.8129 24.624 22.3302 24.5067 22.7036 24.272C23.0876 24.0267 23.2796 23.6533 23.2796 23.152C23.2796 22.6933 23.1142 22.3467 22.7836 22.112C22.4529 21.8667 21.9676 21.744 21.3276 21.744ZM34.5027 22.208C34.5027 23.0293 34.3427 23.744 34.0227 24.352C33.7027 24.9493 33.2494 25.4133 32.6627 25.744C32.0867 26.064 31.404 26.224 30.6147 26.224C29.8254 26.224 29.1374 26.064 28.5507 25.744C27.964 25.4133 27.5054 24.9493 27.1747 24.352C26.8547 23.7547 26.6947 23.04 26.6947 22.208C26.6947 21.3867 26.86 20.6773 27.1907 20.08C27.5214 19.4827 27.98 19.024 28.5667 18.704C29.1534 18.3733 29.836 18.208 30.6147 18.208C31.3934 18.208 32.0707 18.3733 32.6467 18.704C33.2334 19.024 33.6867 19.488 34.0067 20.096C34.3374 20.6933 34.5027 21.3973 34.5027 22.208ZM30.6147 19.776C30.028 19.776 29.564 19.9893 29.2227 20.416C28.892 20.8427 28.7267 21.44 28.7267 22.208C28.7267 22.9973 28.892 23.6053 29.2227 24.032C29.5534 24.448 30.0174 24.656 30.6147 24.656C31.2014 24.656 31.66 24.4427 31.9907 24.016C32.3214 23.5893 32.4867 22.9867 32.4867 22.208C32.4867 21.4507 32.3214 20.8587 31.9907 20.432C31.66 19.9947 31.2014 19.776 30.6147 19.776ZM43.6121 22.208C43.6121 23.0293 43.4521 23.744 43.1321 24.352C42.8121 24.9493 42.3587 25.4133 41.7721 25.744C41.1961 26.064 40.5134 26.224 39.7241 26.224C38.9347 26.224 38.2467 26.064 37.6601 25.744C37.0734 25.4133 36.6147 24.9493 36.2841 24.352C35.9641 23.7547 35.8041 23.04 35.8041 22.208C35.8041 21.3867 35.9694 20.6773 36.3001 20.08C36.6307 19.4827 37.0894 19.024 37.6761 18.704C38.2627 18.3733 38.9454 18.208 39.7241 18.208C40.5027 18.208 41.1801 18.3733 41.7561 18.704C42.3427 19.024 42.7961 19.488 43.1161 20.096C43.4467 20.6933 43.6121 21.3973 43.6121 22.208ZM39.7241 19.776C39.1374 19.776 38.6734 19.9893 38.3321 20.416C38.0014 20.8427 37.8361 21.44 37.8361 22.208C37.8361 22.9973 38.0014 23.6053 38.3321 24.032C38.6627 24.448 39.1267 24.656 39.7241 24.656C40.3107 24.656 40.7694 24.4427 41.1001 24.016C41.4307 23.5893 41.5961 22.9867 41.5961 22.208C41.5961 21.4507 41.4307 20.8587 41.1001 20.432C40.7694 19.9947 40.3107 19.776 39.7241 19.776ZM48.1934 22.816L46.8174 21.904L50.4494 18.288C50.8441 18.2987 51.1588 18.3947 51.3934 18.576C51.6281 18.7467 51.7454 18.9707 51.7454 19.248C51.7454 19.472 51.6654 19.6747 51.5054 19.856C51.3561 20.0373 51.1268 20.2613 50.8174 20.528L48.1934 22.816ZM46.8654 22.192L48.3854 21.472L52.1134 24.976C52.0814 25.328 51.9748 25.6053 51.7934 25.808C51.6121 26.0107 51.3614 26.112 51.0414 26.112C50.7961 26.112 50.5721 26.0533 50.3694 25.936C50.1668 25.808 49.9588 25.616 49.7454 25.36L46.8654 22.192ZM45.3294 21.744L47.2974 21.84V25.968C47.2121 26 47.0894 26.0267 46.9294 26.048C46.7694 26.08 46.5934 26.096 46.4014 26.096C46.0388 26.096 45.7668 26.032 45.5854 25.904C45.4148 25.7653 45.3294 25.5253 45.3294 25.184V21.744ZM47.2974 22.848L45.3294 22.752V15.6C45.4148 15.5787 45.5374 15.552 45.6974 15.52C45.8574 15.488 46.0334 15.472 46.2254 15.472C46.5988 15.472 46.8708 15.5413 47.0414 15.68C47.2121 15.808 47.2974 16.0427 47.2974 16.384V22.848ZM57.0211 18.448L58.8291 18.4C58.8717 18.8053 58.9037 19.232 58.9251 19.68C58.9571 20.128 58.9731 20.5707 58.9731 21.008C58.9837 21.4453 58.9891 21.8667 58.9891 22.272V25.984C58.9144 26.0053 58.7864 26.0267 58.6051 26.048C58.4344 26.08 58.2637 26.096 58.0931 26.096C57.7091 26.096 57.4317 26.032 57.2611 25.904C57.1011 25.7653 57.0211 25.5253 57.0211 25.184V18.448ZM65.2611 23.808L63.4371 23.856C63.3517 23.0347 63.3037 22.2347 63.2931 21.456C63.2824 20.6667 63.2771 19.904 63.2771 19.168V16.288C63.3731 16.2667 63.5011 16.24 63.6611 16.208C63.8317 16.176 64.0131 16.16 64.2051 16.16C64.5784 16.16 64.8451 16.2293 65.0051 16.368C65.1757 16.5067 65.2611 16.7413 65.2611 17.072V23.808ZM65.2611 23.152V25.744C65.1331 25.8507 64.9624 25.936 64.7491 26C64.5357 26.0747 64.2904 26.112 64.0131 26.112C63.6824 26.112 63.3837 26.0587 63.1171 25.952C62.8611 25.8453 62.6424 25.6107 62.4611 25.248L60.1091 21.04C59.9811 20.784 59.8424 20.5173 59.6931 20.24C59.5544 19.9627 59.4211 19.6907 59.2931 19.424C59.1651 19.1573 59.0477 18.912 58.9411 18.688L57.0211 19.136V16.624C57.1384 16.4747 57.3091 16.3627 57.5331 16.288C57.7677 16.2133 58.0184 16.176 58.2851 16.176C58.6051 16.176 58.8984 16.2293 59.1651 16.336C59.4317 16.4427 59.6557 16.672 59.8371 17.024L62.1891 21.232C62.3277 21.488 62.4664 21.7547 62.6051 22.032C62.7544 22.3093 62.8877 22.5813 63.0051 22.848C63.1331 23.1147 63.2451 23.36 63.3411 23.584L65.2611 23.152ZM74.9402 22.208C74.9402 23.0293 74.7802 23.744 74.4602 24.352C74.1402 24.9493 73.6869 25.4133 73.1002 25.744C72.5242 26.064 71.8415 26.224 71.0522 26.224C70.2629 26.224 69.5749 26.064 68.9882 25.744C68.4015 25.4133 67.9429 24.9493 67.6122 24.352C67.2922 23.7547 67.1322 23.04 67.1322 22.208C67.1322 21.3867 67.2975 20.6773 67.6282 20.08C67.9589 19.4827 68.4175 19.024 69.0042 18.704C69.5909 18.3733 70.2735 18.208 71.0522 18.208C71.8309 18.208 72.5082 18.3733 73.0842 18.704C73.6709 19.024 74.1242 19.488 74.4442 20.096C74.7749 20.6933 74.9402 21.3973 74.9402 22.208ZM71.0522 19.776C70.4655 19.776 70.0015 19.9893 69.6602 20.416C69.3295 20.8427 69.1642 21.44 69.1642 22.208C69.1642 22.9973 69.3295 23.6053 69.6602 24.032C69.9909 24.448 70.4549 24.656 71.0522 24.656C71.6389 24.656 72.0975 24.4427 72.4282 24.016C72.7589 23.5893 72.9242 22.9867 72.9242 22.208C72.9242 21.4507 72.7589 20.8587 72.4282 20.432C72.0975 19.9947 71.6389 19.776 71.0522 19.776ZM81.6198 21.04C81.4811 21.6267 81.3158 22.224 81.1238 22.832C80.9318 23.4293 80.7505 23.9947 80.5798 24.528C80.4091 25.0507 80.2598 25.4827 80.1318 25.824C80.0251 25.92 79.8811 25.9947 79.6998 26.048C79.5185 26.1013 79.2945 26.128 79.0278 26.128C78.7398 26.128 78.4785 26.0853 78.2438 26C78.0198 25.904 77.8651 25.7707 77.7798 25.6C77.6838 25.3867 77.5718 25.0827 77.4438 24.688C77.3158 24.2827 77.1825 23.824 77.0438 23.312C76.9158 22.8 76.7825 22.2667 76.6438 21.712C76.5158 21.1573 76.3931 20.6187 76.2758 20.096C76.1691 19.5733 76.0785 19.1093 76.0038 18.704C76.1211 18.5867 76.2651 18.4853 76.4358 18.4C76.6171 18.3147 76.8198 18.272 77.0438 18.272C77.3318 18.272 77.5611 18.3413 77.7318 18.48C77.9025 18.6187 78.0091 18.848 78.0518 19.168C78.1585 19.7867 78.2598 20.3733 78.3558 20.928C78.4518 21.472 78.5478 21.968 78.6438 22.416C78.7398 22.864 78.8198 23.248 78.8838 23.568C78.9585 23.8773 79.0118 24.112 79.0438 24.272H79.1078C79.1825 24.0267 79.2945 23.6373 79.4438 23.104C79.5931 22.5707 79.7691 21.9627 79.9718 21.28C80.1851 20.5867 80.3931 19.8827 80.5958 19.168C80.7451 19.0933 80.8998 19.0347 81.0598 18.992C81.2305 18.9387 81.4225 18.912 81.6358 18.912C81.9131 18.912 82.1478 18.96 82.3398 19.056C82.5318 19.1413 82.6598 19.28 82.7238 19.472C82.9371 20.1547 83.1345 20.8213 83.3158 21.472C83.5078 22.112 83.6731 22.6827 83.8118 23.184C83.9611 23.6747 84.0678 24.0427 84.1318 24.288H84.2118C84.3931 23.4027 84.5851 22.464 84.7878 21.472C84.9905 20.48 85.1611 19.4933 85.2998 18.512C85.5665 18.352 85.8598 18.272 86.1798 18.272C86.4571 18.272 86.6811 18.336 86.8518 18.464C87.0225 18.5813 87.1078 18.7787 87.1078 19.056C87.1078 19.2053 87.0758 19.4453 87.0118 19.776C86.9585 20.1067 86.8785 20.4907 86.7718 20.928C86.6758 21.3653 86.5638 21.8293 86.4358 22.32C86.3078 22.8107 86.1745 23.2853 86.0358 23.744C85.9078 24.2027 85.7851 24.6133 85.6678 24.976C85.5505 25.3387 85.4491 25.6213 85.3638 25.824C85.2678 25.9093 85.1131 25.9787 84.8998 26.032C84.6865 26.096 84.4518 26.128 84.1958 26.128C83.5345 26.128 83.1505 25.968 83.0438 25.648C82.9158 25.328 82.7665 24.9173 82.5958 24.416C82.4358 23.9147 82.2705 23.3707 82.0998 22.784C81.9398 22.1973 81.7798 21.616 81.6198 21.04Z" fill="#F7F5FE"/>
</g>
<defs>
<filter id="filter0_ii_1_512" x="0" y="-1.5" width="104" height="46" filterUnits="userSpaceOnUse" color-interpolation-filters="sRGB">
<feFlood flood-opacity="0" result="BackgroundImageFix"/>
<feBlend mode="normal" in="SourceGraphic" in2="BackgroundImageFix" result="shape"/>
<feColorMatrix in="SourceAlpha" type="matrix" values="0 0 0 0 0 0 0 0 0 0 0 0 0 0 0 0 0 0 127 0" result="hardAlpha"/>
<feOffset dy="2"/>
<feGaussianBlur stdDeviation="2"/>
<feComposite in2="hardAlpha" operator="arithmetic" k2="-1" k3="1"/>
<feColorMatrix type="matrix" values="0 0 0 0 1 0 0 0 0 1 0 0 0 0 1 0 0 0 0.16 0"/>
<feBlend mode="normal" in2="shape" result="effect1_innerShadow_1_512"/>
<feColorMatrix in="SourceAlpha" type="matrix" values="0 0 0 0 0 0 0 0 0 0 0 0 0 0 0 0 0 0 127 0" result="hardAlpha"/>
<feOffset dy="-2"/>
<feGaussianBlur stdDeviation="2"/>
<feComposite in2="hardAlpha" operator="arithmetic" k2="-1" k3="1"/>
<feColorMatrix type="matrix" values="0 0 0 0 0.027451 0 0 0 0 0.027451 0 0 0 0 0.027451 0 0 0 0.16 0"/>
<feBlend mode="normal" in2="effect1_innerShadow_1_512" result="effect2_innerShadow_1_512"/>
</filter>
</defs>
</svg>
