<svg width="30" height="30" viewBox="0 0 30 30" fill="none" xmlns="http://www.w3.org/2000/svg">
<g filter="url(#filter0_dd_1_412)">
<rect x="3.5" y="2.5" width="23" height="23" rx="3.5" stroke="#E17245"/>
<path d="M19.4733 10.8066C19.4114 10.7441 19.3376 10.6945 19.2564 10.6606C19.1752 10.6268 19.088 10.6094 19 10.6094C18.912 10.6094 18.8249 10.6268 18.7436 10.6606C18.6624 10.6945 18.5886 10.7441 18.5267 10.8066L13.56 15.7799L11.4733 13.6866C11.409 13.6244 11.333 13.5755 11.2498 13.5427C11.1666 13.5099 11.0777 13.4938 10.9882 13.4954C10.8988 13.4969 10.8105 13.5161 10.7284 13.5518C10.6464 13.5874 10.5722 13.6389 10.51 13.7032C10.4478 13.7676 10.399 13.8435 10.3662 13.9268C10.3334 14.01 10.3173 14.0989 10.3188 14.1884C10.3204 14.2778 10.3395 14.3661 10.3752 14.4481C10.4109 14.5302 10.4623 14.6044 10.5267 14.6666L13.0867 17.2266C13.1486 17.2891 13.2224 17.3387 13.3036 17.3725C13.3849 17.4063 13.472 17.4238 13.56 17.4238C13.648 17.4238 13.7352 17.4063 13.8164 17.3725C13.8976 17.3387 13.9714 17.2891 14.0333 17.2266L19.4733 11.7866C19.541 11.7241 19.595 11.6484 19.632 11.564C19.6689 11.4797 19.688 11.3886 19.688 11.2966C19.688 11.2045 19.6689 11.1134 19.632 11.0291C19.595 10.9448 19.541 10.869 19.4733 10.8066Z" fill="#E17245"/>
</g>
<defs>
<filter id="filter0_dd_1_412" x="0" y="0" width="30" height="30" filterUnits="userSpaceOnUse" color-interpolation-filters="sRGB">
<feFlood flood-opacity="0" result="BackgroundImageFix"/>
<feColorMatrix in="SourceAlpha" type="matrix" values="0 0 0 0 0 0 0 0 0 0 0 0 0 0 0 0 0 0 127 0" result="hardAlpha"/>
<feOffset dy="1"/>
<feGaussianBlur stdDeviation="1.5"/>
<feColorMatrix type="matrix" values="0 0 0 0 0.0117647 0 0 0 0 0.00784314 0 0 0 0 0.027451 0 0 0 0.12 0"/>
<feBlend mode="normal" in2="BackgroundImageFix" result="effect1_dropShadow_1_412"/>
<feColorMatrix in="SourceAlpha" type="matrix" values="0 0 0 0 0 0 0 0 0 0 0 0 0 0 0 0 0 0 127 0" result="hardAlpha"/>
<feOffset/>
<feGaussianBlur stdDeviation="0.5"/>
<feColorMatrix type="matrix" values="0 0 0 0 0.0117647 0 0 0 0 0.00784314 0 0 0 0 0.027451 0 0 0 0.12 0"/>
<feBlend mode="normal" in2="effect1_dropShadow_1_412" result="effect2_dropShadow_1_412"/>
<feBlend mode="normal" in="SourceGraphic" in2="effect2_dropShadow_1_412" result="shape"/>
</filter>
</defs>
</svg>
