<svg width="81" height="80" viewBox="0 0 81 80" fill="none" xmlns="http://www.w3.org/2000/svg">
<path d="M61.3333 3.33334C60.4493 3.33334 59.6014 3.68453 58.9763 4.30965C58.3512 4.93478 58 5.78262 58 6.66668V23.3333C58 24.2174 58.3512 25.0652 58.9763 25.6904C59.6014 26.3155 60.4493 26.6667 61.3333 26.6667H65.5V74.5833C65.5 75.1359 65.7195 75.6658 66.1102 76.0565C66.5009 76.4472 67.0308 76.6667 67.5833 76.6667C68.1359 76.6667 68.6658 76.4472 69.0565 76.0565C69.4472 75.6658 69.6667 75.1359 69.6667 74.5833V26.6667H73.8333C74.7174 26.6667 75.5652 26.3155 76.1904 25.6904C76.8155 25.0652 77.1667 24.2174 77.1667 23.3333V6.66668C77.1667 5.78262 76.8155 4.93478 76.1904 4.30965C75.5652 3.68453 74.7174 3.33334 73.8333 3.33334H61.3333ZM54.6667 10.3117C53.8375 10.105 52.9862 10.0004 52.1317 10H28.2883C25.9569 10.0002 23.693 10.7825 21.8588 12.2217C20.0247 13.661 18.7264 15.6739 18.1717 17.9383L16.85 23.3333H12.5833C12.0308 23.3333 11.5009 23.5528 11.1102 23.9435C10.7195 24.3342 10.5 24.8641 10.5 25.4167C10.5 25.9692 10.7195 26.4991 11.1102 26.8898C11.5009 27.2805 12.0308 27.5 12.5833 27.5H15.83L15.1083 30.445C13.755 30.9497 12.5883 31.856 11.7646 33.0425C10.941 34.229 10.4997 35.639 10.5 37.0833V66.25C10.5 67.6866 11.0707 69.0643 12.0865 70.0802C13.1023 71.096 14.4801 71.6667 15.9167 71.6667H21.75C23.1866 71.6667 24.5643 71.096 25.5802 70.0802C26.596 69.0643 27.1667 67.6866 27.1667 66.25V60.8333H53.8333V66.25C53.8333 67.6866 54.404 69.0643 55.4198 70.0802C56.4357 71.096 57.8134 71.6667 59.25 71.6667H62.1667V67.5H59.25C58.9185 67.5 58.6005 67.3683 58.3661 67.1339C58.1317 66.8995 58 66.5815 58 66.25V60.8333H62.1667V30H19.5067L22.2183 18.93C22.5511 17.5713 23.33 16.3634 24.4305 15.4998C25.531 14.6362 26.8894 14.1668 28.2883 14.1667H52.1333C53.0267 14.1667 53.8883 14.3567 54.6683 14.7033L54.6667 10.3117ZM14.6667 60.8333H23V66.25C23 66.5815 22.8683 66.8995 22.6339 67.1339C22.3995 67.3683 22.0815 67.5 21.75 67.5H15.9167C15.5851 67.5 15.2672 67.3683 15.0328 67.1339C14.7984 66.8995 14.6667 66.5815 14.6667 66.25V60.8333ZM20.5 43.3333C20.5 42.4493 20.8512 41.6014 21.4763 40.9763C22.1014 40.3512 22.9493 40 23.8333 40C24.7174 40 25.5652 40.3512 26.1904 40.9763C26.8155 41.6014 27.1667 42.4493 27.1667 43.3333C27.1667 44.2174 26.8155 45.0652 26.1904 45.6904C25.5652 46.3155 24.7174 46.6667 23.8333 46.6667C22.9493 46.6667 22.1014 46.3155 21.4763 45.6904C20.8512 45.0652 20.5 44.2174 20.5 43.3333ZM57.1667 46.6667C56.2826 46.6667 55.4348 46.3155 54.8096 45.6904C54.1845 45.0652 53.8333 44.2174 53.8333 43.3333C53.8333 42.4493 54.1845 41.6014 54.8096 40.9763C55.4348 40.3512 56.2826 40 57.1667 40C58.0507 40 58.8986 40.3512 59.5237 40.9763C60.1488 41.6014 60.5 42.4493 60.5 43.3333C60.5 44.2174 60.1488 45.0652 59.5237 45.6904C58.8986 46.3155 58.0507 46.6667 57.1667 46.6667ZM46.75 46.6667C47.3025 46.6667 47.8324 46.8862 48.2231 47.2769C48.6138 47.6676 48.8333 48.1975 48.8333 48.75C48.8333 49.3025 48.6138 49.8324 48.2231 50.2231C47.8324 50.6138 47.3025 50.8333 46.75 50.8333H34.25C33.6975 50.8333 33.1676 50.6138 32.7769 50.2231C32.3862 49.8324 32.1667 49.3025 32.1667 48.75C32.1667 48.1975 32.3862 47.6676 32.7769 47.2769C33.1676 46.8862 33.6975 46.6667 34.25 46.6667H46.75Z" fill="#E17245"/>
</svg>
