<svg width="378" height="32" viewBox="0 0 378 32" fill="none" xmlns="http://www.w3.org/2000/svg">
<path d="M106.333 13.4667C106.467 12.8 105.933 12 105.267 12L97.6667 10.9334L94.2001 4.00002C94.0667 3.73335 93.9334 3.60002 93.6667 3.46669C93.0001 3.06669 92.2001 3.33335 91.8001 4.00002L88.4667 10.9334L80.8667 12C80.4667 12 80.2001 12.1334 80.0667 12.4C79.5334 12.9334 79.5334 13.7334 80.0667 14.2667L85.5334 19.6L84.2001 27.2C84.2001 27.4667 84.2001 27.7334 84.3334 28C84.7334 28.6667 85.5334 28.9334 86.2001 28.5334L93.0001 24.9334L99.8001 28.5334C99.9334 28.6667 100.2 28.6667 100.467 28.6667C100.6 28.6667 100.6 28.6667 100.733 28.6667C101.4 28.5334 101.933 27.8667 101.8 27.0667L100.467 19.4667L105.933 14.1334C106.2 14 106.333 13.7334 106.333 13.4667Z" fill="#ED873F"/>
<path d="M154.333 13.4667C154.467 12.8 153.933 12 153.267 12L145.667 10.9334L142.2 4.00002C142.067 3.73335 141.933 3.60002 141.667 3.46669C141 3.06669 140.2 3.33335 139.8 4.00002L136.467 10.9334L128.867 12C128.467 12 128.2 12.1334 128.067 12.4C127.533 12.9334 127.533 13.7334 128.067 14.2667L133.533 19.6L132.2 27.2C132.2 27.4667 132.2 27.7334 132.333 28C132.733 28.6667 133.533 28.9334 134.2 28.5334L141 24.9334L147.8 28.5334C147.933 28.6667 148.2 28.6667 148.467 28.6667C148.6 28.6667 148.6 28.6667 148.733 28.6667C149.4 28.5334 149.933 27.8667 149.8 27.0667L148.467 19.4667L153.933 14.1334C154.2 14 154.333 13.7334 154.333 13.4667Z" fill="#ED873F"/>
<path d="M202.333 13.4667C202.467 12.8 201.933 12 201.267 12L193.667 10.9334L190.2 4.00002C190.067 3.73335 189.933 3.60002 189.667 3.46669C189 3.06669 188.2 3.33335 187.8 4.00002L184.467 10.9334L176.867 12C176.467 12 176.2 12.1334 176.067 12.4C175.533 12.9334 175.533 13.7334 176.067 14.2667L181.533 19.6L180.2 27.2C180.2 27.4667 180.2 27.7334 180.333 28C180.733 28.6667 181.533 28.9334 182.2 28.5334L189 24.9334L195.8 28.5334C195.933 28.6667 196.2 28.6667 196.467 28.6667C196.6 28.6667 196.6 28.6667 196.733 28.6667C197.4 28.5334 197.933 27.8667 197.8 27.0667L196.467 19.4667L201.933 14.1334C202.2 14 202.333 13.7334 202.333 13.4667Z" fill="#ED873F"/>
<path d="M250.333 13.4667C250.467 12.8 249.933 12 249.267 12L241.667 10.9334L238.2 4.00002C238.067 3.73335 237.933 3.60002 237.667 3.46669C237 3.06669 236.2 3.33335 235.8 4.00002L232.467 10.9334L224.867 12C224.467 12 224.2 12.1334 224.067 12.4C223.533 12.9334 223.533 13.7334 224.067 14.2667L229.533 19.6L228.2 27.2C228.2 27.4667 228.2 27.7334 228.333 28C228.733 28.6667 229.533 28.9334 230.2 28.5334L237 24.9334L243.8 28.5334C243.933 28.6667 244.2 28.6667 244.467 28.6667C244.6 28.6667 244.6 28.6667 244.733 28.6667C245.4 28.5334 245.933 27.8667 245.8 27.0667L244.467 19.4667L249.933 14.1334C250.2 14 250.333 13.7334 250.333 13.4667Z" fill="#ED873F"/>
<path d="M298.333 13.4667C298.467 12.8 297.933 12 297.267 12L289.667 10.9334L286.2 4.00002C286.067 3.73335 285.933 3.60002 285.667 3.46669C285 3.06669 284.2 3.33335 283.8 4.00002L280.467 10.9334L272.867 12C272.467 12 272.2 12.1334 272.067 12.4C271.533 12.9334 271.533 13.7334 272.067 14.2667L277.533 19.6L276.2 27.2C276.2 27.4667 276.2 27.7334 276.333 28C276.733 28.6667 277.533 28.9334 278.2 28.5334L285 24.9334L291.8 28.5334C291.933 28.6667 292.2 28.6667 292.467 28.6667C292.6 28.6667 292.6 28.6667 292.733 28.6667C293.4 28.5334 293.933 27.8667 293.8 27.0667L292.467 19.4667L297.933 14.1334C298.2 14 298.333 13.7334 298.333 13.4667Z" fill="#ED873F"/>
</svg>
