<svg width="81" height="80" viewBox="0 0 81 80" fill="none" xmlns="http://www.w3.org/2000/svg">
<g clip-path="url(#clip0_1_196)">
<path d="M40.5 70C38.1667 70 36.1944 69.1945 34.5833 67.5833C32.9722 65.9722 32.1667 64 32.1667 61.6667C32.1667 59.3333 32.9722 57.3611 34.5833 55.75C36.1944 54.1389 38.1667 53.3333 40.5 53.3333C42.8333 53.3333 44.8056 54.1389 46.4167 55.75C48.0278 57.3611 48.8333 59.3333 48.8333 61.6667C48.8333 64 48.0278 65.9722 46.4167 67.5833C44.8056 69.1945 42.8333 70 40.5 70ZM21.6667 51.1667L14.6667 44C17.9444 40.7222 21.7922 38.1256 26.21 36.21C30.6278 34.2945 35.3911 33.3356 40.5 33.3333C45.6089 33.3311 50.3733 34.3033 54.7933 36.25C59.2133 38.1967 63.06 40.8356 66.3333 44.1667L59.3333 51.1667C56.8889 48.7222 54.0556 46.8056 50.8333 45.4167C47.6111 44.0278 44.1667 43.3333 40.5 43.3333C36.8333 43.3333 33.3889 44.0278 30.1667 45.4167C26.9444 46.8056 24.1111 48.7222 21.6667 51.1667ZM7.5 37L0.5 30C5.61111 24.7778 11.5833 20.6945 18.4167 17.75C25.25 14.8056 32.6111 13.3333 40.5 13.3333C48.3889 13.3333 55.75 14.8056 62.5833 17.75C69.4167 20.6945 75.3889 24.7778 80.5 30L73.5 37C69.2222 32.7222 64.2644 29.3756 58.6267 26.96C52.9889 24.5445 46.9467 23.3356 40.5 23.3333C34.0533 23.3311 28.0122 24.54 22.3767 26.96C16.7411 29.38 11.7822 32.7267 7.5 37Z" fill="#E17245"/>
</g>
<defs>
<clipPath id="clip0_1_196">
<rect width="80" height="80" fill="white" transform="translate(0.5)"/>
</clipPath>
</defs>
</svg>
