<svg width="81" height="80" viewBox="0 0 81 80" fill="none" xmlns="http://www.w3.org/2000/svg">
<path d="M20.5 46.5833V36.5833L14.25 40L4.25 22.6667L26.25 10H30.5C31.3889 12.6667 32.4444 15 33.6667 17C34.8889 19 37.1667 20 40.5 20C43.8333 20 46.1111 19 47.3333 17C48.5556 15 49.6111 12.6667 50.5 10H54.75L76.6667 22.75L66.75 40L60.5 36.5833V52.5833L55.25 57.1667C54.8611 57.5 54.4167 57.7644 53.9167 57.96C53.4167 58.1556 52.9167 58.2522 52.4167 58.25C52.0833 58.25 51.6944 58.1389 51.25 57.9167C50.8056 57.6944 50.3611 57.4167 49.9167 57.0833L41.0833 49.5C39.3056 47.9444 37.3056 46.8056 35.0833 46.0833C32.8611 45.3611 30.6111 45 28.3333 45C27 45 25.68 45.1256 24.3733 45.3767C23.0667 45.6278 21.7756 46.03 20.5 46.5833ZM16 64.5833L11.6667 59.5L18.9167 53.3333C20.1944 52.2222 21.6533 51.3744 23.2933 50.79C24.9333 50.2056 26.6411 49.9144 28.4167 49.9167C30.1922 49.9189 31.8867 50.2111 33.5 50.7933C35.1133 51.3756 36.5578 52.2222 37.8333 53.3333L47.5 61.5833C48.1667 62.1389 48.9589 62.57 49.8767 62.8767C50.7944 63.1833 51.7244 63.3356 52.6667 63.3333C53.6667 63.3333 54.5978 63.1944 55.46 62.9167C56.3222 62.6389 57.0856 62.1944 57.75 61.5833L65 55.3333L69.3333 60.5L62.0833 66.6667C60.8056 67.7778 59.3611 68.6111 57.75 69.1667C56.1389 69.7222 54.4444 70 52.6667 70C50.8889 70 49.1811 69.7222 47.5433 69.1667C45.9056 68.6111 44.4467 67.7778 43.1667 66.6667L33.5 58.4167C32.8333 57.8611 32.07 57.4311 31.21 57.1267C30.35 56.8222 29.4189 56.6689 28.4167 56.6667C27.4722 56.6667 26.5422 56.82 25.6267 57.1267C24.7111 57.4333 23.9189 57.8633 23.25 58.4167L16 64.5833Z" fill="#E17245"/>
</svg>
