<svg width="81" height="80" viewBox="0 0 81 80" fill="none" xmlns="http://www.w3.org/2000/svg">
<path d="M63.8332 23.3333H37.1666V46.6667H10.4999V16.6667H3.83325V66.6667H10.4999V56.6667H70.4999V66.6667H77.1666V36.6667C77.1666 33.1304 75.7618 29.739 73.2613 27.2386C70.7608 24.7381 67.3695 23.3333 63.8332 23.3333ZM23.8333 43.3333C26.4854 43.3333 29.029 42.2798 30.9043 40.4044C32.7797 38.529 33.8332 35.9855 33.8332 33.3333C33.8332 30.6812 32.7797 28.1376 30.9043 26.2623C29.029 24.3869 26.4854 23.3333 23.8333 23.3333C21.1811 23.3333 18.6375 24.3869 16.7622 26.2623C14.8868 28.1376 13.8333 30.6812 13.8333 33.3333C13.8333 35.9855 14.8868 38.529 16.7622 40.4044C18.6375 42.2798 21.1811 43.3333 23.8333 43.3333Z" fill="#E17245"/>
</svg>
