<svg width="81" height="80" viewBox="0 0 81 80" fill="none" xmlns="http://www.w3.org/2000/svg">
<g clip-path="url(#clip0_1_192)">
<path d="M27.1669 65C28.0509 65 28.8988 64.6488 29.5239 64.0237C30.149 63.3986 30.5002 62.5507 30.5002 61.6667V58.3333C30.5002 57.8913 30.6758 57.4674 30.9884 57.1548C31.3009 56.8423 31.7249 56.6667 32.1669 56.6667H50.5002C50.9423 56.6667 51.3662 56.8423 51.6787 57.1548C51.9913 57.4674 52.1669 57.8913 52.1669 58.3333V61.6667C52.1669 62.5507 52.5181 63.3986 53.1432 64.0237C53.7683 64.6488 54.6162 65 55.5002 65C56.3843 65 57.2321 64.6488 57.8573 64.0237C58.4824 63.3986 58.8336 62.5507 58.8336 61.6667V11.6667C58.8336 10.3406 59.3604 9.06881 60.298 8.13113C61.2357 7.19345 62.5075 6.66667 63.8336 6.66667C65.1596 6.66667 66.4314 7.19345 67.3691 8.13113C68.3068 9.06881 68.8336 10.3406 68.8336 11.6667C68.8336 12.5507 69.1848 13.3986 69.8099 14.0237C70.435 14.6488 71.2828 15 72.1669 15C73.0509 15 73.8988 14.6488 74.5239 14.0237C75.149 13.3986 75.5002 12.5507 75.5002 11.6667C75.5002 8.57247 74.2711 5.60501 72.0831 3.41709C69.8952 1.22916 66.9278 0 63.8336 0C60.7394 0 57.7719 1.22916 55.584 3.41709C53.3961 5.60501 52.1669 8.57247 52.1669 11.6667V18.3333C52.1669 18.7754 51.9913 19.1993 51.6787 19.5118C51.3662 19.8244 50.9423 20 50.5002 20H32.1669C31.7249 20 31.3009 19.8244 30.9884 19.5118C30.6758 19.1993 30.5002 18.7754 30.5002 18.3333V11.6667C30.5002 10.3406 31.027 9.06881 31.9647 8.13113C32.9024 7.19345 34.1741 6.66667 35.5002 6.66667C36.8263 6.66667 38.0981 7.19345 39.0358 8.13113C39.9734 9.06881 40.5002 10.3406 40.5002 11.6667C40.5002 12.5507 40.8514 13.3986 41.4765 14.0237C42.1017 14.6488 42.9495 15 43.8336 15C44.7176 15 45.5655 14.6488 46.1906 14.0237C46.8157 13.3986 47.1669 12.5507 47.1669 11.6667C47.1669 8.57247 45.9377 5.60501 43.7498 3.41709C41.5619 1.22916 38.5944 0 35.5002 0C32.406 0 29.4386 1.22916 27.2506 3.41709C25.0627 5.60501 23.8336 8.57247 23.8336 11.6667V61.6667C23.8336 62.5507 24.1848 63.3986 24.8099 64.0237C25.435 64.6488 26.2828 65 27.1669 65ZM30.5002 28.3333C30.5002 27.8913 30.6758 27.4674 30.9884 27.1548C31.3009 26.8423 31.7249 26.6667 32.1669 26.6667H50.5002C50.9423 26.6667 51.3662 26.8423 51.6787 27.1548C51.9913 27.4674 52.1669 27.8913 52.1669 28.3333V33.3333C52.1669 33.7754 51.9913 34.1993 51.6787 34.5118C51.3662 34.8244 50.9423 35 50.5002 35H32.1669C31.7249 35 31.3009 34.8244 30.9884 34.5118C30.6758 34.1993 30.5002 33.7754 30.5002 33.3333V28.3333ZM30.5002 43.3333C30.5002 42.8913 30.6758 42.4674 30.9884 42.1548C31.3009 41.8423 31.7249 41.6667 32.1669 41.6667H50.5002C50.9423 41.6667 51.3662 41.8423 51.6787 42.1548C51.9913 42.4674 52.1669 42.8913 52.1669 43.3333V48.3333C52.1669 48.7754 51.9913 49.1993 51.6787 49.5118C51.3662 49.8244 50.9423 50 50.5002 50H32.1669C31.7249 50 31.3009 49.8244 30.9884 49.5118C30.6758 49.1993 30.5002 48.7754 30.5002 48.3333V43.3333ZM76.7336 73.1333C71.3002 73.8667 67.6002 68.1333 67.5669 68.1C67.2718 67.6026 66.8523 67.1905 66.3496 66.9043C65.847 66.6181 65.2786 66.4676 64.7002 66.4676C64.1218 66.4676 63.5534 66.6181 63.0508 66.9043C62.5482 67.1905 62.1287 67.6026 61.8336 68.1C60.8959 69.6379 59.5929 70.9204 58.0402 71.8334C56.4875 72.7464 54.7333 73.2616 52.9336 73.3333C51.3259 73.2908 49.758 72.8245 48.3884 71.9817C47.0188 71.1388 45.896 69.9493 45.1336 68.5333C44.8853 68.0125 44.5062 67.5649 44.0332 67.2346C43.5601 66.9042 43.0094 66.7022 42.435 66.6485C41.8605 66.5947 41.2819 66.691 40.7558 66.9279C40.2297 67.1648 39.7741 67.5342 39.4336 68C38.2263 69.5324 36.7143 70.7976 34.993 71.7156C33.2717 72.6336 31.3787 73.1845 29.4336 73.3333C27.6378 73.2253 25.8928 72.6951 24.3406 71.7858C22.7883 70.8764 21.4725 69.6136 20.5002 68.1C20.218 67.6421 19.8291 67.2593 19.3668 66.9843C18.9044 66.7093 18.3824 66.5503 17.8453 66.5208C17.3082 66.4913 16.7719 66.5923 16.2823 66.815C15.7927 67.0378 15.3642 67.3757 15.0336 67.8C15.0336 67.8 9.8669 73.9667 4.2669 73.3333C3.38284 73.2184 2.48934 73.4594 1.78295 74.0032C1.07657 74.5471 0.615157 75.3493 0.50023 76.2333C0.385303 77.1174 0.626272 78.0109 1.17013 78.7173C1.71398 79.4237 2.51617 79.8851 3.40023 80C4.01034 80.0495 4.62345 80.0495 5.23356 80C9.30504 79.8423 13.2042 78.3156 16.3002 75.6667C16.5997 75.4315 16.9694 75.3036 17.3502 75.3036C17.731 75.3036 18.1008 75.4315 18.4002 75.6667C21.397 78.3917 25.2836 79.9321 29.3336 80C33.4468 79.9402 37.4274 78.5353 40.6669 76C40.9638 75.7591 41.3345 75.6276 41.7169 75.6276C42.0992 75.6276 42.47 75.7591 42.7669 76C45.5289 78.5696 49.1611 79.9987 52.9336 80C56.9331 80.007 60.8019 78.5754 63.8336 75.9667C64.133 75.7172 64.5105 75.5806 64.9002 75.5806C65.29 75.5806 65.6674 75.7172 65.9669 75.9667C67.5502 77.4 69.4237 78.4754 71.4599 79.1196C73.4962 79.7639 75.6473 79.9618 77.7669 79.7C78.6106 79.5525 79.3652 79.086 79.8741 78.3971C80.383 77.7082 80.6072 76.8498 80.5002 76C80.4429 75.5637 80.2997 75.1431 80.0789 74.7624C79.8582 74.3817 79.5642 74.0485 79.2141 73.782C78.8639 73.5155 78.4644 73.321 78.0387 73.2096C77.6129 73.0983 77.1694 73.0724 76.7336 73.1333Z" fill="#E17245"/>
</g>
<defs>
<clipPath id="clip0_1_192">
<rect width="80" height="80" fill="white" transform="translate(0.5)"/>
</clipPath>
</defs>
</svg>
