<svg width="8" height="9" viewBox="0 0 8 9" fill="none" xmlns="http://www.w3.org/2000/svg">
<path d="M7.94667 4.24666C7.91494 4.16483 7.86736 4.09007 7.80667 4.02666L4.47333 0.69333C4.41117 0.631171 4.33738 0.581864 4.25617 0.548223C4.17495 0.514583 4.08791 0.497269 4 0.497269C3.82247 0.497269 3.6522 0.567794 3.52667 0.69333C3.46451 0.755489 3.4152 0.829282 3.38156 0.910497C3.34792 0.991712 3.33061 1.07876 3.33061 1.16666C3.33061 1.3442 3.40113 1.51446 3.52667 1.64L5.72667 3.83333H0.666667C0.489856 3.83333 0.320287 3.90357 0.195262 4.02859C0.070238 4.15362 0 4.32319 0 4.5C0 4.67681 0.070238 4.84638 0.195262 4.9714C0.320287 5.09643 0.489856 5.16666 0.666667 5.16666H5.72667L3.52667 7.36C3.46418 7.42197 3.41459 7.49571 3.38074 7.57694C3.34689 7.65818 3.32947 7.74532 3.32947 7.83333C3.32947 7.92134 3.34689 8.00847 3.38074 8.08971C3.41459 8.17095 3.46418 8.24469 3.52667 8.30666C3.58864 8.36915 3.66238 8.41874 3.74362 8.45259C3.82486 8.48644 3.91199 8.50386 4 8.50386C4.08801 8.50386 4.17515 8.48644 4.25638 8.45259C4.33762 8.41874 4.41136 8.36915 4.47333 8.30666L7.80667 4.97333C7.86736 4.90993 7.91494 4.83516 7.94667 4.75333C8.01335 4.59102 8.01335 4.40897 7.94667 4.24666Z" fill="white"/>
</svg>
